<?xml version="1.0" encoding="utf-8"?>
<!-- Generator: Adobe Illustrator 21.0.0, SVG Export Plug-In . SVG Version: 6.00 Build 0)  -->
<svg version="1.1" id="Layer_1" xmlns="http://www.w3.org/2000/svg"  x="0px" y="0px"
	 viewBox="0 0 700 700" style="enable-background:new 0 0 700 700;" xml:space="preserve">
<style type="text/css">
	.st0{fill:#563E05;}
	.st1{fill:#898989;}
	.st2{fill:#B7B7B7;}
	.st3{fill:#D3C63D;}
</style>
<polygon class="st0" points="151,489 55,585 55,622 96,622 189,529 "/>
<polygon class="st0" points="542,491 638,587 638,624 597,624 504,531 "/>
<polygon class="st1" points="445,501 108,165 100,83 175,96 513,435 "/>
<polygon class="st2" points="179.5,433.5 515.5,96.5 597.5,88.5 584.5,163.5 245.5,501.5 "/>
<path class="st3" d="M72,428c59,59,118,118,177,177c3.5-9.2,18.8-53-2-102c-19.8-46.8-58.9-66.3-69-71c-49.4-22.8-94.6-8.3-104-5
	L72,428z"/>
<path class="st3" d="M615.7,430c-59,59-118,118-177,177c-3.5-9.2-18.8-53,2-102c19.8-46.8,58.9-66.3,69-71c49.4-22.8,94.6-8.3,104-5
	L615.7,430z"/>
</svg>
