<?xml version="1.0" encoding="utf-8"?>
<!-- Generator: Adobe Illustrator 21.0.0, SVG Export Plug-In . SVG Version: 6.00 Build 0)  -->
<svg version="1.1" id="Layer_1" xmlns="http://www.w3.org/2000/svg"  x="0px" y="0px"
	 viewBox="0 0 1019 693" style="enable-background:new 0 0 1019 693;" xml:space="preserve">
<style type="text/css">
	.st0{fill:#999999;}
	.st1{fill:#CCCCCC;}
	.st2{fill:#D9E021;}
	.st3{fill:#754C24;}
	.st4{fill:#4D4D4D;}
</style>
<path class="st0" d="M98.6,61c-26.9,14-39.9,35.3-56,61.4c-4.9,8.1-23.3,39-32.5,84.9c-9.4,46.9-4.1,83.8,0,110.2
	c6.8,44,11,71.4,32.5,99.3c7,9.1,34,43.1,81.3,52.4c53.5,10.5,118.6-13.5,133.6-56c6.9-19.5,3-42.1,1.8-48.8
	c-3.9-22.1-12.1-30.4-19.9-48.8c-17.1-40.4-11.4-80.5-9-97.5c4.6-32.4,14.3-41.4,16.3-81.3c0.9-17.4-0.4-28.6-5.4-39.7
	C231.7,76,213.4,65.6,205.1,61C173.2,43.5,131.3,43.9,98.6,61z"/>
<path class="st0" d="M291.8,309.3c-22.3-13.6-31.3-35.5-33.5-41.4c-12.2-32.9-1.9-73.4,12.3-94.1c2.2-3.2,7.5-10.4,11-21.5
	c1-3.3,4.3-14.7,2.9-29.7c-1-10.5-3.4-13.5-4.5-20c-3-18,9-34.5,18.7-47.7c8.7-11.8,26.5-36.2,59.7-46.2c31.6-9.4,58-0.1,74.7,5.9
	C476.5,30,500,60.9,511.1,76c16.5,22.3,26.3,65,25.4,77.2c-2,26-5.8,45.2-30.6,74.5c-21.4,25.3-47.8,47.1-85.6,66.5
	C397.2,305.9,337,336.7,291.8,309.3z"/>
<path class="st0" d="M778.1,532.7c-6.5,46.3-28,87.2-33.5,97.2c-13,23.6-21.7,38.8-43.3,48.1c-20.2,8.6-41.2,7.6-55.3,6.9
	c-13-0.6-42.2-2.4-71.8-18.3c-42.2-22.7-56.9-58.9-61.6-70.4c-9.9-24.3-8-46.9-4.2-92.2c2-23.7-0.6-14.8,4.8-55.4
	c2.4-18.3,7.6-30.7,18.8-44.6c5.6-6.8,11.3-11,14.4-13.2c27.1-19.3,75.5-28.2,125.3-20.1c25.3,4.1,51.9,8.5,75.5,27.9
	c21.5,17.7,25.9,29.6,34,69.6L778.1,532.7z"/>
<path class="st0" d="M733.4,230.9c-16,28.5-19,59.2-19.6,67.3c-3.4,45.2,51.2,84.5,67.6,100.6c2.5,2.5,8.5,7.8,13.8,18.8
	c1.6,3.3,6.7,14.7,8.7,33c1.4,12.8,0,17.7,0.4,25.8c1.3,22.7,14.9,35,25.8,44.8c9.8,8.8,30.1,27.1,60.3,19.7c28.7-7,49-32.9,62-49.3
	c33.5-42.6,46.8-92,53-115.8c9.2-35.3,8.6-90.6,5.2-104.2c-7.2-29.1-14.4-49.3-41.6-69.2c-23.4-17.2-50.3-27.6-86.5-28.6
	C860.6,173,765.8,173.3,733.4,230.9z"/>
<polygon class="st1" points="385,399 551,225 660,186 629,278 432,445 382,402 "/>
<polygon class="st2" points="321,344 484,492 396,517 303,437 "/>
<polygon class="st3" points="334.5,464.1 365.3,490.2 271,576 240.9,545.8 "/>
<polygon class="st2" points="201,566 241,546 271,576 254,612 229,615 199,589 "/>
<path class="st4" d="M587.7,585.2c-1.3-17.2-2-36.1-1.6-56.4c0.4-22.7,2.1-43.6,4.5-62.4l-12,1.2l-2-20c3.8-1.5,7.7-2.8,11.7-3.9
	c47.8-13.2,93.3,4.5,120.4,18.9c1.8,1.6,3.3,3.3,4.5,4.9c11.9,15.7,8.5,32.7,6.7,39.7c0,0-4.6,6.8-6,7.3c-18.3,6.8-57.8,8.3-77,11.5
	c-1,0.2-5.2,0.8-5.2,0.8l0,0l92.3,47.3l-28.5,24.4c-3.6-0.4-7.2-0.9-10.9-1.6c-24.1-4.4-49.9-20.1-65-29.8l2.6,38.8
	c-2.3-1-4.7-2.1-7.1-3.3C604.4,597.3,595.4,591.2,587.7,585.2z"/>
<path class="st0" d="M630,505l4-26l41,6c1,0,4.5,1.1,6,2c2.8,1.6,4.3,3.1,4,7c-1,4-4.9,4.7-8.9,5.6C661.8,502.7,645,503,630,505z"/>
<path class="st4" d="M882.2,377.8c-28.4-7.4-52-25.2-55.8-46.5c-5.5-30.7,29.2-74.3,89-78.4l26.6,29.2v39.8c0,0-10.2-21.7-17.3-22.6
	c-13-1.6-41.2,34.8-41.2,37.2c0,2.7,0,2.7,2.7,5.3c4,4,23.3,15.5,34.5,21.3c2.1,1.1,7.2,3.7,10.6,9.3c3.6,5.9,5.2,14.8,1.3,21.3
	c-1.7,2.9-4.1,4.5-5.3,5.3c-13.4,8.6-54.1,22-59.8,23.9l-26.6-18.6l50.5-25.2L882.2,377.8z"/>
<path class="st4" d="M380.2,207.8c-28.4-7.4-52-25.2-55.8-46.5c-5.5-30.7,29.2-74.3,89-78.4l26.6,29.2v39.8c0,0-10.2-21.7-17.3-22.6
	c-13-1.6-41.2,34.8-41.2,37.2c0,2.7,0,2.7,2.7,5.3c4,4,23.3,15.5,34.5,21.3c2.1,1.1,7.2,3.7,10.6,9.3c3.6,5.9,5.2,14.8,1.3,21.3
	c-1.7,2.9-4.1,4.5-5.3,5.3c-13.4,8.6-54.1,22-59.8,23.9l-26.6-18.6l50.5-25.2L380.2,207.8z"/>
<path class="st4" d="M77.6,304c-0.2-2.2-1.1-10.8-1.5-26.4c0,0-0.6-9.1-0.8-18.3c-0.1-2.4-0.5-21.7,1.8-36.3
	c2.2-13.8,5.4-33.7,21.4-48.1c25.6-23,62.1-12.2,65.7-11c4,1.3,6.9,3.7,6.9,3.7c5.3,4.3,7.1,10.1,7.8,12.3
	c10.1,32.7,0.8,73.2,0.8,73.2c-4.5,19.7-11.6,45.2-27.2,76.4c-0.5,0.3-2.2,2.8-3.1,3.3c-15.8,9.3-34.1,4.5-36.8,3.7
	C95.2,331.7,78.6,316.8,77.6,304z"/>
<path class="st0" d="M112.8,296.2c0,0,1.2,1.8,3.7,2.7c6.4,2.4,15.8-15.5,23.3-29.7c16.4-31.1,17-38.1,17.4-45.6
	c0.3-7.2,1.7-18.2-5.8-24.5c-0.3-0.3-7.2-5.9-14.6-4c-9.6,2.4-13.4,15.3-19.4,35.9c-6.5,22.1-6.3,24.7-7.7,43.5
	c0,0-0.7,3.5,0.5,16.5C110.2,292.1,111,294,112.8,296.2z"/>
</svg>
