<?xml version="1.0" encoding="utf-8"?>
<!-- Generator: Adobe Illustrator 21.0.0, SVG Export Plug-In . SVG Version: 6.00 Build 0)  -->
<svg version="1.1" id="Layer_1" xmlns="http://www.w3.org/2000/svg"  x="0px" y="0px"
	 viewBox="0 0 700 700" style="enable-background:new 0 0 700 700;" xml:space="preserve">
<style type="text/css">
	.st0{fill:#7F6B4B;}
	.st1{fill:#A0885C;}
</style>
<path class="st0" d="M11,451.7c4.2,8.3,11.4,20.1,23.3,31.4c18.7,17.7,39,24.4,50.2,27.8c46.7,14.2,86,16.8,115.7,21.5
	c77.7,12.3,136.7,46.3,179.3,70.8c22.2,12.8,32.3,31.6,59.2,38.6c31.8,8.3,61.9-0.8,82.5-9.9v-3.6l-32.3-176.6l80.7-146.2
	c43.2-22.6,93.2-51.6,88.8-64.6c-3.5-10.2-39.5-6.2-48.4-5.4c-57.3,5.1-167.2-17.9-395.4-134.5c-2.1,6.7-4.9,16.9-6.3,29.6
	c-4.4,40.2,9,67,13.5,85.2c16.7,67.9-57.8,148.4-102.2,182.9c-18.6,14.4-53.6,37.7-105.8,50.2L11,451.7z"/>
<path class="st1" d="M139.2,475.9c-10-7.7-25.9-17.9-47.5-24.2c-36-10.5-66.8-3.9-80.7,0c0.8-0.8,2.1-2.1,3.6-3.6
	c39.6-39.8,68.9-75.9,80.7-91.5c24.9-32.9,70.6-93.2,86.1-180.2c4.9-27.6,9.2-71.5-0.9-126.4c0.6,0,1.2,0,1.8,0
	c39.5,0.1,82.1,6.6,127.3,22.4c-0.2,0.8-0.5,2.1-0.9,3.6c-14.2,57.1-20,100-21.5,110.3c-10.3,68.1-51.9,141.2-76.2,183.8
	c-15.4,27-37,61.2-66.4,98.6L139.2,475.9z"/>
<path class="st1" d="M545.4,166.6c-28.9,45.2-50.2,85.4-65.5,116.6c-17.7,36.3-44.1,91.1-65.5,166.8c-13.7,48.6-21,90.5-25.1,121.1
	c0.8,0,2,0,3.6,0c0,0,16.1,0.2,32.3,3.6c12.7,2.7,52.5,19.8,95.9,57.4c0-1.2,0-3.1,0-5.4c0-56.6,1.2-109.2,1.8-122.8
	c2.2-47.8,21.2-120.8,69-182.9c16.7-21.7,46.8-54.9,95.9-83.4c-0.3-0.3-0.6-0.6-0.9-0.9c-30.4-30.2-73.9-56.1-137.2-69L545.4,166.6z
	"/>
</svg>
