<?xml version="1.0" encoding="utf-8"?>
<!-- Generator: Adobe Illustrator 21.0.0, SVG Export Plug-In . SVG Version: 6.00 Build 0)  -->
<svg version="1.1" id="Layer_1" xmlns="http://www.w3.org/2000/svg"  x="0px" y="0px"
	 viewBox="0 0 700 700" style="enable-background:new 0 0 700 700;" xml:space="preserve">
<style type="text/css">
	.st0{fill:#735837;}
	.st1{fill:#797673;}
	.st2{fill:#513A31;}
	.st3{fill:#5C4335;}
</style>
<path class="st0" d="M82.8,412.9c-24.1-39.4-8.3-97.7,23.9-128.8c29.8-28.8,92.1-27.6,129.8-7.6l77.3,62l-122.2,188L82.8,412.9z"/>
<polygon class="st1" points="57,487.4 345,175.8 492.2,289.8 159.1,574.2 "/>
<path class="st0" d="M225.9,539.8c-25.8-42.2-8.6-101.2,25.8-134.6c31.9-30.9,93.2-38.6,133.6-17.2l118.3,88.8L322.3,628.6
	L225.9,539.8z"/>
<g>
	<g>
		<g>
			<path class="st2" d="M651.6,176.2c-0.7-16-2.8-63.3-41-101.2C574.1,39,528.9,35.5,517,35h-42L325.2,197.2l150.8,105h127.9
				C613.5,291.7,654.6,244.6,651.6,176.2z M572.4,219.2c-30.6-27-61.1-54-91.7-81l4.5-7.9c12.1-16,23.1-22.7,28.3-23.6
				c31.1-5.4,66.7,30.6,70.2,67.5C585.7,194.5,577.5,210.9,572.4,219.2z"/>
		</g>
	</g>
</g>
<ellipse class="st3" cx="413" cy="552.7" rx="125" ry="109.3"/>
</svg>
