<?xml version="1.0" encoding="utf-8"?>
<!-- Generator: Adobe Illustrator 21.0.0, SVG Export Plug-In . SVG Version: 6.00 Build 0)  -->
<svg version="1.1" id="Layer_1" xmlns="http://www.w3.org/2000/svg"  x="0px" y="0px"
	 viewBox="0 0 700 700" style="enable-background:new 0 0 700 700;" xml:space="preserve">
<style type="text/css">
	.st0{fill:#757B7C;}
	.st1{fill:none;}
	.st2{fill:none;stroke:#000000;stroke-width:15;stroke-miterlimit:10;}
	.st3{fill:none;stroke:#463C2F;stroke-width:27;stroke-miterlimit:10;}
	.st4{fill:none;stroke:#555C5A;stroke-width:27;stroke-miterlimit:10;}
</style>
<path class="st0" d="M620,235c-33.4-2.4-73.4-1.3-117,9c-158.6,37.3-244.6,166.3-269,206l-158-9c0.9,0.9,1.9,2.8,4,4
	c49,28,79,43,99,59c17.4,13.9,31.6,55.9,47,104l37-99c3.1,0,7.6,0.1,13,0c100.2-1.4,279.5-37.3,333-161
	C618.1,327.1,625.5,285.2,620,235"/>
<path class="st0" d="M449,272l-218-38c1.3,1.3,2.7,2.6,4,4c26.5,27.2,54.8,70.3,67,140"/>
<path class="st0" d="M532,426c-5.9,16.6-35.6,98.7-73.6,119c-6.9,3.7-10.2,3.3-12.3,2.2c-12.4-6.6,0-54.1,13.4-95.7"/>
<path class="st1" d="M700,316c0-34.3-268.8-62-601-62"/>
<path class="st2" d="M517.2,328c2.3-21.4,19.3-37.1,37.8-35.1"/>
<path class="st3" d="M133,104c28.2,24.8,50.2,28.8,65,28c36.4-1.9,46-33.7,99-46c20.2-4.7,40.5-9.4,61,0c23.4,10.7,28.2,31,53,38
	c15.1,4.3,29.3,1.3,39-2"/>
<path class="st4" d="M553,182c4.2-1,26.5-6.7,31-22c5.7-19.6-21.7-41.5-40-50c-41.7-19.3-92.1,9.8-99,14"/>
</svg>
