<?xml version="1.0" encoding="utf-8"?>
<!-- Generator: Adobe Illustrator 21.0.0, SVG Export Plug-In . SVG Version: 6.00 Build 0)  -->
<svg version="1.1" id="Layer_1" xmlns="http://www.w3.org/2000/svg"  x="0px" y="0px"
	 viewBox="0 0 700 700" style="enable-background:new 0 0 700 700;" xml:space="preserve">
<style type="text/css">
	.st0{fill:#068906;}
	.st1{fill:#00BC00;}
	.st2{fill:#096C02;}
</style>
<path class="st0" d="M384.3,270.3c49.9-75.9,127.6-94,143.4-97.4c3.9,12.8,30.5,105.4-26.8,192.5c-49.9,75.9-128,94.1-143.8,97.4
	C353.1,450,327,357.4,384.3,270.3z"/>
<path class="st1" d="M448.9,332.7c82.9-68.2,177.1-61.5,196.1-59.7c-0.1,15.9-2.5,129.7-97.8,208.1
	c-82.9,68.2-177.6,61.4-196.5,59.7C350.8,524.8,353.7,411.1,448.9,332.7z"/>
<path class="st0" d="M312.7,270.3c-49.9-75.9-127.6-94-143.4-97.4c-3.9,12.8-30.5,105.4,26.8,192.5c49.9,75.9,128,94.1,143.8,97.4
	C343.9,450,370,357.4,312.7,270.3z"/>
<path class="st1" d="M251.5,332.7c-82.9-68.2-177.1-61.5-196.1-59.7c0.1,15.9,2.5,129.7,97.8,208.1c82.9,68.2,177.6,61.4,196.5,59.7
	C349.7,524.8,346.8,411.1,251.5,332.7z"/>
<path class="st2" d="M443.1,318.2c-5.6-113-77.7-181.7-92.5-195.3c-12.3,11.3-99.4,93.9-92.9,223.8c5.6,113,78.1,182,92.9,195.6
	C362.8,531,449.5,448,443.1,318.2z"/>
</svg>
