<?xml version="1.0" encoding="utf-8"?>
<!-- Generator: Adobe Illustrator 21.0.0, SVG Export Plug-In . SVG Version: 6.00 Build 0)  -->
<svg version="1.1" id="Layer_1" xmlns="http://www.w3.org/2000/svg"  x="0px" y="0px"
	 viewBox="0 0 700 700" style="enable-background:new 0 0 700 700;" xml:space="preserve">
<style type="text/css">
	.st0{fill:#463C2F;}
	.st1{fill:#757B7C;}
</style>
<polygon class="st0" points="86,620 86,573 498.5,160.5 498.5,106 602,106 602,204 545,204 129,620 "/>
<path class="st1" d="M98,214c25.8-19.4,93-64.2,182-60c139.4,6.6,265.3,130.2,274,270c5.7,91.5-40.5,161-60,187c0.5,0,1.2,0,2,0
	c55-0.6,96.8-67.3,107-80c54.4-67.7,43.2-156.5,19-223c-23.9-65.9-65.8-106-93-132c-23.9-22.9-66.8-63.1-135-87
	c-36.8-12.9-150.9-30.2-232,34c-41.4,32.7-57.8,56.2-64,83V214z"/>
</svg>
