<?xml version="1.0" encoding="utf-8"?>
<!-- Generator: Adobe Illustrator 21.0.0, SVG Export Plug-In . SVG Version: 6.00 Build 0)  -->
<svg version="1.1" id="Layer_1" xmlns="http://www.w3.org/2000/svg"  x="0px" y="0px"
	 viewBox="0 0 700 700" style="enable-background:new 0 0 700 700;" xml:space="preserve">
<style type="text/css">
	.st0{fill:#C1A476;}
	.st1{fill:none;stroke:#54493D;stroke-width:13;stroke-miterlimit:10;}
</style>
<path class="st0" d="M247.7,645V444.9c0.1-1.4,0.1-3.6,0-6.2c-2-39.4-40.6-57.3-76.3-98c-28-31.9-47.3-53.9-44.4-80.5
	c3.9-34.2,17-27.3,37-72.3c8.7-19.5,10.9-38.1,20-49c12.4-15,36.1-21.7,56.5-18c0.4,0,1.2,0.1,2.1,0c12.5-1.5,13.1-30,25.8-46.4
	c11.9-15.4,32.5-17.7,49.5-19.6c106.5-11.8,214.6,131.5,229,150.6c10.6,14.1,18.1,26.7,16.5,41.3c-2.5,22.3-24.1,29.8-35.1,62.9
	c-4.4,13.2-4.5,22.9-5.2,29.9c-2.2,25.1-14.2,64.5-57.8,126.9V645H247.7z"/>
<path class="st1" d="M375.6,62.2c-16,51.1-27.3,84.1-69.6,99.5"/>
<path class="st1" d="M463.3,115.4c-3.7,4.1-59.7,109.9-103.7,119.6"/>
<path class="st1" d="M527.5,182.1c-2.8,2.3-61.4,98.2-106.2,102.7"/>
<path class="st1" d="M269.9,227.8c0,17.7-16.1,32-36.1,32"/>
<path class="st1" d="M260.6,253.6c48.5,20.6,116.6,110.4,125.8,166.1"/>
<path class="st1" d="M355.5,224.7c14.4,25.8-3.1,71.2-43.3,71.2"/>
<path class="st1" d="M248.2,118.5c50.5,41.3,86.6,66,109.3,110.4"/>
</svg>
