<?xml version="1.0" encoding="utf-8"?>
<!-- Generator: Adobe Illustrator 21.0.0, SVG Export Plug-In . SVG Version: 6.00 Build 0)  -->
<svg version="1.1" id="Layer_1" xmlns="http://www.w3.org/2000/svg"  x="0px" y="0px"
	 viewBox="0 0 700 700" style="enable-background:new 0 0 700 700;" xml:space="preserve">
<g>
	<line x1="154.7" y1="616.8" x2="354.2" y2="417.3"/>
	<g>
		<path d="M175.9,638c22.6-22.6,45.2-45.2,67.8-67.8c35.7-35.7,71.4-71.4,107.1-107.1c8.2-8.2,16.4-16.4,24.6-24.6
			c11.1-11.1,11.9-31.5,0-42.4c-12-11-30.6-11.9-42.4,0c-22.6,22.6-45.2,45.2-67.8,67.8c-35.7,35.7-71.4,71.4-107.1,107.1
			c-8.2,8.2-16.4,16.4-24.6,24.6c-11.1,11.1-11.9,31.5,0,42.4C145.5,649,164.1,649.9,175.9,638L175.9,638z"/>
	</g>
</g>
<g>
	<g>
		<path d="M333.5,438.1c30.6,30.6,61.2,61.2,91.8,91.8c4.3,4.3,8.6,8.6,12.9,12.9c11.1,11.1,31.5,11.9,42.4,0
			c11-12,11.9-30.6,0-42.4c-30.6-30.6-61.2-61.2-91.8-91.8c-4.3-4.3-8.6-8.6-12.9-12.9c-11.1-11.1-31.5-11.9-42.4,0
			C322.5,407.6,321.6,426.2,333.5,438.1L333.5,438.1z"/>
	</g>
</g>
<g>
	<g>
		<path d="M437.7,500.8c-27.8,27.8-55.5,55.5-83.3,83.3c-4,4-8,8-12,12c-11.1,11.1-11.9,31.5,0,42.4c12,11,30.6,11.9,42.4,0
			c27.8-27.8,55.5-55.5,83.3-83.3c4-4,8-8,12-12c11.1-11.1,11.9-31.5,0-42.4C468.2,489.8,449.6,488.9,437.7,500.8L437.7,500.8z"/>
	</g>
</g>
<g>
	<line x1="353.3" y1="415.5" x2="353.3" y2="211.5"/>
	<g>
		<path d="M398.3,415.5c0-23,0-46,0-69c0-36.5,0-73,0-109.6c0-8.5,0-16.9,0-25.4c0-11.5-5-23.7-13.2-31.8
			c-7.8-7.8-20.6-13.7-31.8-13.2c-11.6,0.5-23.7,4.3-31.8,13.2c-8.1,8.8-13.2,19.6-13.2,31.8c0,23,0,46,0,69c0,36.5,0,73,0,109.6
			c0,8.5,0,16.9,0,25.4c0,11.5,5,23.7,13.2,31.8c7.8,7.8,20.6,13.7,31.8,13.2c11.6-0.5,23.7-4.3,31.8-13.2
			C393.2,438.5,398.3,427.7,398.3,415.5L398.3,415.5z"/>
	</g>
</g>
<g>
	<g>
		<path d="M334.4,215.2c30.6,30.6,61.2,61.2,91.8,91.8c4.3,4.3,8.6,8.6,12.9,12.9c11.1,11.1,31.5,11.9,42.4,0
			c11-12,11.9-30.6,0-42.4c-30.6-30.6-61.2-61.2-91.8-91.8c-4.3-4.3-8.6-8.6-12.9-12.9c-11.1-11.1-31.5-11.9-42.4,0
			C323.4,184.7,322.5,203.3,334.4,215.2L334.4,215.2z"/>
	</g>
</g>
<g>
	<g>
		<path d="M534.8,181.7c-27.8,27.8-55.5,55.5-83.3,83.3c-4,4-8,8-12,12c-11.1,11.1-11.9,31.5,0,42.4c12,11,30.6,11.9,42.4,0
			c27.8-27.8,55.5-55.5,83.3-83.3c4-4,8-8,12-12c11.1-11.1,11.9-31.5,0-42.4C565.2,170.7,546.6,169.9,534.8,181.7L534.8,181.7z"/>
	</g>
</g>
<g>
	<g>
		<path d="M335,169.8c-42.7,18.6-85.5,37.2-128.2,55.9c-6.1,2.7-12.2,5.3-18.3,8c-6.4,2.8-12,11.5-13.8,17.9c-2,7.2-1.1,16.7,3,23.1
			c4.1,6.4,10.3,12,17.9,13.8c8.4,1.9,15.3,0.4,23.1-3c42.7-18.6,85.5-37.2,128.2-55.9c6.1-2.7,12.2-5.3,18.3-8
			c6.4-2.8,12-11.5,13.8-17.9c2-7.2,1.1-16.7-3-23.1c-4.1-6.4-10.3-12-17.9-13.8C349.8,164.9,342.9,166.4,335,169.8L335,169.8z"/>
	</g>
</g>
<g>
	<g>
		<path d="M178.7,275.6c20.2,28.3,40.4,56.6,60.6,85c2.9,4,5.7,8.1,8.6,12.1c4.6,6.5,10,11.6,17.9,13.8c7.2,2,16.7,1.1,23.1-3
			c12.6-8.2,20.5-27.4,10.8-41c-20.2-28.3-40.4-56.6-60.6-85c-2.9-4-5.7-8.1-8.6-12.1c-4.6-6.5-10-11.6-17.9-13.8
			c-7.2-2-16.7-1.1-23.1,3C176.8,242.7,168.9,261.9,178.7,275.6L178.7,275.6z"/>
	</g>
</g>
<circle cx="357.8" cy="101.8" r="54.8"/>
</svg>
